<?xml version="1.0" encoding="UTF-8"?><svg id="Layer_1" xmlns="http://www.w3.org/2000/svg" xmlns:xlink="http://www.w3.org/1999/xlink" viewBox="0 0 111 48"><defs><style>.cls-1{fill:url(#linear-gradient);}.cls-1,.cls-2,.cls-3,.cls-4,.cls-5,.cls-6,.cls-7,.cls-8{stroke-width:0px;}.cls-2{fill:url(#linear-gradient-4);}.cls-3{fill:url(#linear-gradient-2);}.cls-4{fill:url(#linear-gradient-3);}.cls-5{fill:url(#linear-gradient-5);}.cls-6{fill:url(#linear-gradient-6);}.cls-7{fill:#210d3d;}.cls-8{fill:#fff;}</style><linearGradient id="linear-gradient" x1="79.37" y1="1.72" x2="8.56" y2="15.15" gradientUnits="userSpaceOnUse"><stop offset="0" stop-color="#406aff"/><stop offset=".15" stop-color="#3bace2"/><stop offset=".57" stop-color="#b936ee"/><stop offset=".82" stop-color="#ff56f6"/></linearGradient><linearGradient id="linear-gradient-2" x1="79.8" y1="3.94" x2="8.98" y2="17.37" xlink:href="#linear-gradient"/><linearGradient id="linear-gradient-3" x1="80.25" y1="6.33" x2="9.43" y2="19.76" xlink:href="#linear-gradient"/><linearGradient id="linear-gradient-4" x1="80.63" y1="8.34" x2="9.82" y2="21.77" xlink:href="#linear-gradient"/><linearGradient id="linear-gradient-5" x1="81.03" y1="10.42" x2="10.21" y2="23.85" xlink:href="#linear-gradient"/><linearGradient id="linear-gradient-6" x1="81.46" y1="12.7" x2="10.64" y2="26.13" gradientUnits="userSpaceOnUse"><stop offset="0" stop-color="#3bace2"/><stop offset=".22" stop-color="#406aff"/><stop offset=".57" stop-color="#b936ee"/><stop offset=".82" stop-color="#ff56f6"/></linearGradient></defs><rect class="cls-7" width="111" height="48"/><path class="cls-1" d="m17.08,11.36h-3.63v-1.11c0-.52-.05-.85-.14-.99-.09-.14-.25-.21-.46-.21-.24,0-.41.1-.53.29-.12.19-.18.48-.18.87,0,.5.07.88.2,1.13.13.25.5.56,1.1.92,1.74,1.03,2.84,1.88,3.29,2.54.45.66.68,1.73.68,3.21,0,1.07-.13,1.86-.38,2.37s-.74.93-1.45,1.28c-.72.34-1.55.52-2.51.52-1.05,0-1.94-.2-2.68-.59-.74-.4-1.22-.9-1.45-1.51-.23-.61-.34-1.48-.34-2.61v-.98h3.63v1.83c0,.56.05.93.15,1.09s.28.24.54.24.45-.1.58-.31c.13-.2.19-.51.19-.91,0-.89-.12-1.46-.36-1.74-.25-.27-.86-.73-1.83-1.37-.97-.64-1.62-1.11-1.93-1.4s-.58-.69-.78-1.21c-.21-.51-.31-1.17-.31-1.97,0-1.15.15-1.99.44-2.53.29-.53.77-.95,1.43-1.25.66-.3,1.45-.45,2.38-.45,1.02,0,1.88.16,2.6.49.72.33,1.19.74,1.42,1.24s.35,1.35.35,2.54v.59Z"/><path class="cls-3" d="m29.53,6.81v15.04h-3.91v-6.32h-1.17v6.32h-3.91V6.81h3.91v5.38h1.17v-5.38h3.91Z"/><path class="cls-4" d="m39.76,6.81l2.24,15.04h-4l-.21-2.7h-1.4l-.24,2.7h-4.04l2-15.04h5.65Zm-2.07,9.67c-.2-1.7-.4-3.81-.6-6.32-.4,2.88-.65,4.99-.75,6.32h1.35Z"/><path class="cls-2" d="m53.56,6.81v15.04h-3.91v-6.32h-1.17v6.32h-3.91V6.81h3.91v5.38h1.17v-5.38h3.91Z"/><path class="cls-5" d="m57.03,6.81h6.52v3.01h-2.61v2.85h2.44v2.86h-2.44v3.31h2.87v3.01h-6.78V6.81Z"/><path class="cls-6" d="m78.91,6.81v15.04h-3.42v-10.15s-1.37,10.15-1.37,10.15h-2.42l-1.43-9.92v9.92h-3.42V6.81h5.06c.15.9.31,1.97.46,3.2l.55,3.83.9-7.02h5.09Z"/><path class="cls-8" d="m15.56,26.47l2.24,15.04h-4l-.21-2.7h-1.4l-.24,2.7h-4.04l2-15.04h5.65Zm-2.07,9.67c-.2-1.7-.4-3.81-.6-6.32-.4,2.88-.65,4.99-.75,6.32h1.35Z"/><path class="cls-8" d="m24.27,26.47v12.03h2.38v3.01h-6.29v-15.04h3.91Z"/><path class="cls-8" d="m43.75,26.47v15.04h-3.91v-6.32h-1.17v6.32h-3.91v-15.04h3.91v5.38h1.17v-5.38h3.91Z"/><path class="cls-8" d="m53.98,26.47l2.24,15.04h-4l-.21-2.7h-1.4l-.24,2.7h-4.04l2-15.04h5.65Zm-2.07,9.67c-.2-1.7-.4-3.81-.6-6.32-.4,2.88-.65,4.99-.75,6.32h1.35Z"/><path class="cls-8" d="m58.79,26.47h2.93c1.89,0,3.17.09,3.83.26.67.17,1.17.46,1.52.85.35.4.56.84.65,1.32.09.49.13,1.44.13,2.87v5.27c0,1.35-.06,2.25-.19,2.71s-.35.81-.66,1.07c-.32.26-.71.44-1.17.54-.46.1-1.17.15-2.1.15h-4.93v-15.04Zm3.91,2.57v9.89c.56,0,.91-.11,1.04-.34.13-.23.2-.84.2-1.84v-5.84c0-.68-.02-1.12-.06-1.31-.04-.19-.14-.33-.3-.42s-.45-.13-.87-.13Z"/><path class="cls-8" d="m75.12,26.47v15.04h-3.91v-15.04h3.91Z"/><path class="cls-8" d="m78.59,26.47h2.93c1.89,0,3.17.09,3.83.26.67.17,1.17.46,1.52.85s.56.84.65,1.32.13,1.44.13,2.87v5.27c0,1.35-.06,2.25-.19,2.71s-.35.81-.66,1.07c-.32.26-.71.44-1.17.54-.46.1-1.17.15-2.1.15h-4.93v-15.04Zm3.91,2.57v9.89c.56,0,.91-.11,1.04-.34.13-.23.19-.84.19-1.84v-5.84c0-.68-.02-1.12-.06-1.31-.04-.19-.14-.33-.3-.42-.15-.09-.45-.13-.87-.13Z"/></svg>